<svg width="20" height="20" viewBox="0 0 20 20" fill="none" xmlns="http://www.w3.org/2000/svg">
<path d="M2.74602 13.0907C3.07151 13.4161 3.59911 13.416 3.92449 13.0905C4.24987 12.765 4.24979 12.2374 3.9243 11.9121L2.01214 10.0006L4.9027 7.11001C6.64748 5.36523 9.12439 4.65432 11.4947 5.15376C11.9451 5.24864 12.387 4.96048 12.4819 4.51015C12.5768 4.05981 12.2886 3.61783 11.8383 3.52295C8.9224 2.9086 5.87153 3.78419 3.72419 5.93154L0.244308 9.41142C-0.0811495 9.73687 -0.0811104 10.2646 0.244425 10.59L2.74602 13.0907Z" fill="#B8B8B8"/>
<path d="M19.7562 9.41052L17.2546 6.90978C16.9291 6.5844 16.4015 6.58448 16.0761 6.90998C15.7507 7.23547 15.7508 7.76307 16.0763 8.08845L17.9885 9.99995L15.0979 12.8905C13.3531 14.6353 10.8762 15.3462 8.50587 14.8468C8.05554 14.7519 7.61356 15.04 7.51868 15.4904C7.4238 15.9407 7.71195 16.3827 8.16229 16.4776C11.0782 17.0919 14.1291 16.2163 16.2764 14.069L19.7563 10.5891C20.0818 10.2636 20.0817 9.73589 19.7562 9.41052Z" fill="#B8B8B8"/>
<path d="M5.8338 10.0003C5.8338 10.4605 6.20687 10.8335 6.66709 10.8335C7.12731 10.8335 7.50038 10.4605 7.50038 10.0003C7.50038 8.61972 8.61976 7.50034 10.0003 7.50034C10.4605 7.50034 10.8336 7.12727 10.8336 6.66705C10.8336 6.20684 10.4605 5.83376 10.0003 5.83376C7.69932 5.83372 5.8338 7.69924 5.8338 10.0003Z" fill="#B8B8B8"/>
<path d="M12.5002 10.0003C12.5002 11.3808 11.3808 12.5002 10.0003 12.5002C9.54007 12.5002 9.16699 12.8732 9.16699 13.3335C9.16699 13.7937 9.54007 14.1668 10.0003 14.1668C12.3013 14.1668 14.1668 12.3012 14.1668 10.0002C14.1668 9.54 13.7937 9.16693 13.3335 9.16693C12.8733 9.16693 12.5002 9.54004 12.5002 10.0003Z" fill="#B8B8B8"/>
<path d="M19.7552 0.244064C19.4298 -0.0813546 18.9022 -0.0813546 18.5767 0.244064L0.244064 18.5767C-0.0813546 18.9022 -0.0813546 19.4298 0.244064 19.7552C0.569482 20.0806 1.09712 20.0806 1.42254 19.7552L19.7552 1.42254C20.0807 1.09712 20.0807 0.569482 19.7552 0.244064Z" fill="#B8B8B8"/>
</svg>
