<?xml version="1.0" standalone="no"?>
<!DOCTYPE svg PUBLIC "-//W3C//DTD SVG 20010904//EN"
 "http://www.w3.org/TR/2001/REC-SVG-20010904/DTD/svg10.dtd">
<svg version="1.0" xmlns="http://www.w3.org/2000/svg"
 width="513.000000pt" height="564.000000pt" viewBox="0 0 513.000000 564.000000"
 preserveAspectRatio="xMidYMid meet">

<g transform="translate(0.000000,564.000000) scale(0.100000,-0.100000)"
fill="#000000" stroke="none">
<path d="M3071 5560 c-108 -29 -194 -81 -286 -174 -88 -88 -138 -172 -175
-291 -18 -57 -23 -109 -31 -280 -12 -290 -34 -423 -110 -650 -78 -233 -183
-418 -311 -549 -126 -127 -196 -158 -264 -117 -83 51 -119 140 -140 344 -23
233 -45 301 -129 417 -136 183 -376 253 -579 168 -89 -37 -198 -123 -345 -269
-338 -337 -545 -742 -618 -1209 -27 -173 -24 -577 5 -800 68 -504 226 -915
490 -1269 72 -97 274 -304 377 -388 240 -195 534 -348 870 -451 l120 -36 526
-4 526 -3 129 32 c364 88 678 221 952 402 167 111 265 191 401 329 307 309
505 670 617 1122 l34 140 0 579 0 580 -26 116 c-172 770 -642 1474 -1369 2052
-105 83 -203 149 -265 177 -121 53 -270 65 -399 32z m239 -351 c83 -30 435
-322 630 -525 511 -531 809 -1153 871 -1818 15 -161 6 -511 -16 -656 -98 -634
-372 -1098 -850 -1437 -75 -53 -245 -156 -250 -151 -2 2 8 35 21 74 40 120 58
245 58 409 1 153 -8 217 -46 330 -71 209 -251 429 -416 507 -109 52 -253 38
-353 -34 -77 -55 -132 -129 -158 -210 -7 -21 -16 -38 -21 -38 -16 0 -32 109
-40 273 -5 106 -14 177 -24 207 -41 112 -127 200 -233 240 -83 31 -206 26
-283 -12 -98 -49 -270 -198 -401 -350 -346 -401 -436 -970 -225 -1423 51 -108
53 -107 -73 -38 -710 388 -1081 1085 -1081 2034 0 334 55 580 190 849 106 211
285 434 470 585 111 90 148 101 210 64 72 -44 86 -83 110 -298 16 -150 25
-197 53 -269 41 -109 90 -184 172 -261 189 -176 430 -184 645 -22 393 296 641
874 669 1555 8 212 18 248 86 332 66 80 189 116 285 83z m-922 -3354 c19 -308
89 -480 227 -560 164 -97 382 -8 485 197 22 44 40 86 40 93 0 7 7 18 15 25 12
10 27 0 88 -61 121 -121 177 -261 177 -439 0 -168 -43 -342 -112 -457 -98
-161 -257 -276 -429 -307 -174 -32 -278 -38 -365 -21 -350 66 -581 258 -666
552 -20 68 -23 100 -22 248 0 155 3 178 27 258 72 235 198 418 411 595 72 60
91 71 101 60 8 -8 16 -77 23 -183z"/>
</g>
</svg>
