<svg width="18" height="15" viewBox="0 0 18 15" fill="none" xmlns="http://www.w3.org/2000/svg">
<path d="M15.8999 1.20313C16.0066 1.09433 16.1338 1.00789 16.2743 0.948883C16.4148 0.889875 16.5656 0.859482 16.7179 0.859482C16.8703 0.859482 17.0211 0.889875 17.1615 0.948883C17.302 1.00789 17.4292 1.09433 17.5359 1.20313C17.9828 1.65469 17.989 2.38438 17.5515 2.84375L8.31244 13.7656C8.20754 13.8808 8.08025 13.9734 7.93834 14.0377C7.79644 14.102 7.6429 14.1367 7.48714 14.1396C7.33137 14.1425 7.17664 14.1136 7.03242 14.0547C6.88821 13.9958 6.75752 13.908 6.64838 13.7969L1.0265 8.1C0.809684 7.87889 0.688232 7.58156 0.688232 7.27188C0.688232 6.9622 0.809684 6.66487 1.0265 6.44375C1.13314 6.33495 1.26041 6.24852 1.40086 6.18951C1.54131 6.1305 1.69212 6.10011 1.84447 6.10011C1.99681 6.10011 2.14763 6.1305 2.28808 6.18951C2.42853 6.24852 2.5558 6.33495 2.66244 6.44375L7.43119 11.2766L15.8687 1.2375C15.8784 1.22543 15.8888 1.21395 15.8999 1.20313Z" fill="#74C69D"/>
</svg>
