<svg xmlns="http://www.w3.org/2000/svg" xmlns:xlink="http://www.w3.org/1999/xlink" viewBox="0 0 162 80"><path d="M 65.016 80 L 15 80 C 6.716 80 0 73.284 0 65 L 0 15 C 0 6.716 6.716 0 15 0 L 127.385 0 C 134.108 0 139.559 5.45 139.559 12.174 L 139.559 13.127 C 139.559 19.324 144.582 24.347 150.779 24.347 C 156.976 24.347 162 29.371 162 35.568 L 162 42.143 C 162 50.427 155.284 57.143 147 57.143 L 87.873 57.143 C 81.561 57.143 76.444 62.26 76.444 68.571 C 76.444 74.883 71.328 80 65.016 80 Z" fill="rgb(255,255,255)"></path></svg>