<svg width="18" height="18" viewBox="0 0 18 18" fill="none" xmlns="http://www.w3.org/2000/svg">
<g clip-path="url(#clip0_952_2625)">
<path d="M1.5 6.75002H3.75V15.75H1.5C1.30109 15.75 1.11032 15.671 0.96967 15.5304C0.829018 15.3897 0.75 15.1989 0.75 15V7.50002C0.75 7.30111 0.829018 7.11034 0.96967 6.96969C1.11032 6.82904 1.30109 6.75002 1.5 6.75002ZM5.46975 5.78027L10.2697 0.980273C10.3335 0.916293 10.4183 0.877498 10.5084 0.871021C10.5985 0.864545 10.688 0.890823 10.7603 0.945023L11.4 1.42502C11.5777 1.55841 11.7119 1.74141 11.7857 1.95096C11.8595 2.16052 11.8696 2.38723 11.8148 2.60252L10.95 6.00002H15.75C16.1478 6.00002 16.5294 6.15806 16.8107 6.43936C17.092 6.72067 17.25 7.1022 17.25 7.50002V9.07802C17.2502 9.27404 17.212 9.4682 17.1375 9.64952L14.8162 15.2858C14.7596 15.4232 14.6634 15.5407 14.5399 15.6233C14.4164 15.706 14.2711 15.7501 14.1225 15.75H6C5.80109 15.75 5.61032 15.671 5.46967 15.5304C5.32902 15.3897 5.25 15.1989 5.25 15V6.31052C5.25004 6.11163 5.32909 5.92089 5.46975 5.78027Z" fill="white"/>
</g>
<defs>
<clipPath id="clip0_952_2625">
<rect width="18" height="18" fill="white"/>
</clipPath>
</defs>
</svg>
