<svg width="50" height="50" viewBox="0 0 50 50" fill="none" xmlns="http://www.w3.org/2000/svg">
<g clip-path="url(#clip0_1_208)">
<path d="M15.375 22.2757C17.6647 27.3286 22.5668 29.5281 24.9999 29.5281C26.5997 29.5281 29.267 28.5765 31.5572 26.4888C30.7198 26.5472 29.8248 26.5768 28.8684 26.5768C28.6439 26.5768 28.4085 26.5748 28.1569 26.5709C27.6748 26.9421 27.0775 27.1515 26.4578 27.1515H24.42C22.8843 27.1515 21.6349 25.9022 21.6349 24.3665C21.6349 22.8308 22.8843 21.5815 24.42 21.5815H26.4578C27.194 21.5815 27.8825 21.8684 28.3932 22.3633C28.5628 22.3652 28.7301 22.366 28.8942 22.366C31.5249 22.366 33.2585 22.1247 34.3926 21.8337C34.2455 21.4758 34.1653 21.0841 34.1653 20.6752V13.6139C34.1653 12.8793 34.438 12.1752 34.9094 11.6312C34.6578 9.67287 34.2012 8.17779 33.5198 7.07493C32.1156 4.80222 29.4083 3.74377 24.9999 3.74377C21.3429 3.74377 18.8175 4.50293 17.2796 6.06458C16.0875 7.27517 15.3966 9.00256 15.0737 11.6114C15.5557 12.1574 15.8345 12.8687 15.8345 13.6139V20.6752C15.8346 21.2627 15.6658 21.8111 15.375 22.2757Z" fill="white"/>
<path d="M10.3646 22.3422H12.8092C13.7294 22.3422 14.4761 21.5958 14.4761 20.6751V13.6138C14.4761 12.9987 14.142 12.4627 13.6464 12.1739C14.1923 6.39182 16.4236 2.38506 25.0001 2.38506C29.9252 2.38506 32.9997 3.64851 34.6756 6.36084C35.6508 7.9392 36.1199 9.97783 36.339 12.1826C35.8513 12.4735 35.5239 13.0047 35.5239 13.6137V20.675C35.5239 21.4688 36.0793 22.1316 36.8222 22.2997C35.7446 23.0045 33.5136 23.7244 28.8942 23.7244C28.52 23.7244 28.13 23.7196 27.7238 23.7099C27.4861 23.2527 27.0089 22.9398 26.4579 22.9398H24.4202C23.6325 22.9398 22.9938 23.5785 22.9938 24.3663C22.9938 25.1541 23.6325 25.7928 24.4202 25.7928H26.4579C26.9339 25.7928 27.3545 25.5587 27.6135 25.2005C28.0425 25.2113 28.4626 25.2181 28.8685 25.2181C34.0755 25.218 37.3856 24.3292 38.7262 22.5658C38.7833 22.4908 38.8353 22.4161 38.8828 22.3422H39.6358C40.5562 22.3422 41.3027 21.5958 41.3027 20.6751V13.6138C41.3027 12.6933 40.5563 11.9469 39.6358 11.9469H38.7163C38.4577 9.28307 37.8842 7.01539 36.7047 5.1069C34.5816 1.67047 30.7527 0 24.9999 0C19.2468 0 15.4182 1.67047 13.295 5.10704C12.1156 7.01552 11.5425 9.28293 11.2836 11.947H10.3645C9.44377 11.947 8.69739 12.6933 8.69739 13.614V20.6753C8.69739 21.5958 9.44391 22.3422 10.3646 22.3422Z" fill="white"/>
<path d="M45.1537 43.1065C44.5994 39.6603 43.4583 35.2211 41.1699 33.6438C39.6094 32.5677 34.1617 29.657 31.8354 28.4142L31.7865 28.3881C31.5203 28.2459 31.1954 28.2744 30.9581 28.4607C29.7377 29.4186 28.4017 30.0639 26.9873 30.3787C26.7374 30.4342 26.5321 30.6121 26.4412 30.8515L24.9999 34.6501L23.5586 30.8515C23.4678 30.6119 23.2625 30.4342 23.0125 30.3787C21.5981 30.0639 20.2619 29.4186 19.0414 28.4607C18.8042 28.2743 18.4792 28.2458 18.213 28.3881C15.9128 29.6171 10.3945 32.5889 8.83651 33.6392C6.20107 35.4147 5.05011 41.8372 4.8462 43.1066C4.82595 43.2325 4.83764 43.3613 4.88016 43.4814C4.97444 43.7477 7.39184 50.0001 24.9998 50.0001C42.6075 50.0001 45.0251 43.7477 45.1196 43.4816C45.1622 43.3612 45.1739 43.2323 45.1537 43.1065ZM36.9551 39.149H29.9812V37.6803H36.9551V39.149Z" fill="white"/>
</g>
<defs>
<clipPath id="clip0_1_208">
<rect width="50" height="50" fill="white"/>
</clipPath>
</defs>
</svg>
