<svg width="56" height="56" viewBox="0 0 56 56" fill="none" xmlns="http://www.w3.org/2000/svg">
<g clip-path="url(#clip0_1_223)">
<path d="M55.7737 28.861C49.4783 40.0096 39.095 46.6666 28 46.6666C16.905 46.6666 6.52166 40.0096 0.22633 28.861C-0.0746702 28.3266 -0.0746702 27.6756 0.22633 27.1413C6.52166 15.9903 16.905 9.3333 28 9.3333C39.095 9.3333 49.4783 15.9903 55.7737 27.139C56.0747 27.6733 56.0747 28.3266 55.7737 28.861ZM28 18.6666C22.8527 18.6666 18.6667 22.8526 18.6667 28C18.6667 33.1473 22.8527 37.3333 28 37.3333C33.1473 37.3333 37.3333 33.1473 37.3333 28C37.3333 22.8526 33.1473 18.6666 28 18.6666Z" fill="white"/>
<path d="M53.6667 37.3333C52.3787 37.3333 51.3333 38.3787 51.3333 39.6667V49C51.3333 50.2857 50.2857 51.3333 49 51.3333H39.6667C38.3787 51.3333 37.3333 52.3787 37.3333 53.6667C37.3333 54.9547 38.3787 56 39.6667 56H49C52.8593 56 56 52.8593 56 49V39.6667C56 38.3787 54.9547 37.3333 53.6667 37.3333Z" fill="white"/>
<path d="M2.33333 37.3333C1.04533 37.3333 0 38.3787 0 39.6667V49C0 52.8593 3.14067 56 7 56H16.3333C17.6213 56 18.6667 54.9547 18.6667 53.6667C18.6667 52.3787 17.6213 51.3333 16.3333 51.3333H7C5.71433 51.3333 4.66667 50.2857 4.66667 49V39.6667C4.66667 38.3787 3.62133 37.3333 2.33333 37.3333Z" fill="white"/>
<path d="M49 -4.57764e-05H39.6667C38.3787 -4.57764e-05 37.3333 1.04529 37.3333 2.33329C37.3333 3.62129 38.3787 4.66662 39.6667 4.66662H49C50.2857 4.66662 51.3333 5.71429 51.3333 6.99996V16.3333C51.3333 17.6213 52.3787 18.6666 53.6667 18.6666C54.9547 18.6666 56 17.6213 56 16.3333V6.99996C56 3.14062 52.8593 -4.57764e-05 49 -4.57764e-05Z" fill="white"/>
<path d="M16.3333 -4.57764e-05H7C3.14067 -4.57764e-05 0 3.14062 0 6.99996V16.3333C0 17.6213 1.04533 18.6666 2.33333 18.6666C3.62133 18.6666 4.66667 17.6213 4.66667 16.3333V6.99996C4.66667 5.71429 5.71433 4.66662 7 4.66662H16.3333C17.6213 4.66662 18.6667 3.62129 18.6667 2.33329C18.6667 1.04529 17.6213 -4.57764e-05 16.3333 -4.57764e-05Z" fill="white"/>
</g>
<defs>
<clipPath id="clip0_1_223">
<rect width="56" height="56" fill="white" transform="matrix(1 0 0 -1 0 56)"/>
</clipPath>
</defs>
</svg>
