<svg width="42" height="50" viewBox="0 0 42 50" fill="none" xmlns="http://www.w3.org/2000/svg">
<path d="M11.375 22.2757C13.6647 27.3286 18.5668 29.5281 20.9999 29.5281C22.5997 29.5281 25.267 28.5765 27.5572 26.4888C26.7198 26.5472 25.8248 26.5768 24.8684 26.5768C24.6439 26.5768 24.4085 26.5748 24.1569 26.5709C23.6748 26.9421 23.0775 27.1515 22.4578 27.1515H20.42C18.8843 27.1515 17.6349 25.9022 17.6349 24.3665C17.6349 22.8308 18.8843 21.5815 20.42 21.5815H22.4578C23.194 21.5815 23.8825 21.8684 24.3932 22.3633C24.5628 22.3652 24.7301 22.366 24.8942 22.366C27.5249 22.366 29.2585 22.1247 30.3926 21.8337C30.2455 21.4758 30.1653 21.0841 30.1653 20.6752V13.6139C30.1653 12.8793 30.438 12.1752 30.9094 11.6312C30.6578 9.67287 30.2012 8.17779 29.5198 7.07493C28.1156 4.80222 25.4083 3.74377 20.9999 3.74377C17.3429 3.74377 14.8175 4.50293 13.2796 6.06458C12.0875 7.27517 11.3966 9.00256 11.0737 11.6114C11.5557 12.1574 11.8345 12.8687 11.8345 13.6139V20.6752C11.8346 21.2627 11.6658 21.8111 11.375 22.2757Z" fill="white"/>
<path d="M6.36459 22.3422H8.80916C9.72944 22.3422 10.4761 21.5958 10.4761 20.6751V13.6138C10.4761 12.9987 10.142 12.4627 9.64643 12.1739C10.1923 6.39182 12.4236 2.38506 21.0001 2.38506C25.9252 2.38506 28.9997 3.64851 30.6756 6.36084C31.6508 7.9392 32.1199 9.97783 32.339 12.1826C31.8513 12.4735 31.5239 13.0047 31.5239 13.6137V20.675C31.5239 21.4688 32.0793 22.1316 32.8222 22.2997C31.7446 23.0045 29.5136 23.7244 24.8942 23.7244C24.52 23.7244 24.13 23.7196 23.7238 23.7099C23.4861 23.2527 23.0089 22.9398 22.4579 22.9398H20.4202C19.6325 22.9398 18.9938 23.5785 18.9938 24.3663C18.9938 25.1541 19.6325 25.7928 20.4202 25.7928H22.4579C22.9339 25.7928 23.3545 25.5587 23.6135 25.2005C24.0425 25.2113 24.4626 25.2181 24.8685 25.2181C30.0755 25.218 33.3856 24.3292 34.7262 22.5658C34.7833 22.4908 34.8353 22.4161 34.8828 22.3422H35.6358C36.5562 22.3422 37.3027 21.5958 37.3027 20.6751V13.6138C37.3027 12.6933 36.5563 11.9469 35.6358 11.9469H34.7163C34.4577 9.28307 33.8842 7.01539 32.7047 5.1069C30.5816 1.67047 26.7527 0 20.9999 0C15.2468 0 11.4182 1.67047 9.29497 5.10704C8.11562 7.01552 7.54245 9.28293 7.28365 11.947H6.36446C5.44377 11.947 4.69739 12.6933 4.69739 13.614V20.6753C4.69739 21.5958 5.44391 22.3422 6.36459 22.3422Z" fill="white"/>
<path d="M41.1537 43.1065C40.5994 39.6603 39.4583 35.2211 37.1699 33.6438C35.6094 32.5677 30.1617 29.657 27.8354 28.4142L27.7865 28.3881C27.5203 28.2459 27.1954 28.2744 26.9581 28.4607C25.7377 29.4186 24.4017 30.0639 22.9873 30.3787C22.7374 30.4342 22.5321 30.6121 22.4412 30.8515L20.9999 34.6501L19.5586 30.8515C19.4678 30.6119 19.2625 30.4342 19.0125 30.3787C17.5981 30.0639 16.2619 29.4186 15.0414 28.4607C14.8042 28.2743 14.4792 28.2458 14.213 28.3881C11.9128 29.6171 6.39449 32.5889 4.83651 33.6392C2.20107 35.4147 1.05011 41.8372 0.846197 43.1066C0.825955 43.2325 0.837638 43.3613 0.880161 43.4814C0.974444 43.7477 3.39184 50.0001 20.9998 50.0001C38.6075 50.0001 41.0251 43.7477 41.1196 43.4816C41.1622 43.3612 41.1739 43.2323 41.1537 43.1065ZM32.9551 39.149H25.9812V37.6803H32.9551V39.149Z" fill="white"/>
</svg>
