<svg width="19" height="22" viewBox="0 0 19 22" fill="none" xmlns="http://www.w3.org/2000/svg">
<path d="M0.606934 12.0001H6.18417V10.0001H0.606934V0.846106C0.606947 0.759221 0.628007 0.673839 0.668035 0.598376C0.708064 0.522913 0.765681 0.459974 0.835207 0.415763C0.904732 0.371552 0.983767 0.347594 1.06452 0.346251C1.14527 0.344908 1.22496 0.366227 1.29572 0.408106L18.4569 10.5621C18.5297 10.6053 18.5905 10.6687 18.6328 10.7457C18.6752 10.8228 18.6975 10.9106 18.6975 11.0001C18.6975 11.0896 18.6752 11.1774 18.6328 11.2545C18.5905 11.3315 18.5297 11.3949 18.4569 11.4381L1.29572 21.5921C1.22496 21.634 1.14527 21.6553 1.06452 21.654C0.983767 21.6526 0.904732 21.6287 0.835207 21.5844C0.765681 21.5402 0.708064 21.4773 0.668035 21.4018C0.628007 21.3264 0.606947 21.241 0.606934 21.1541V12.0001Z" fill="white"/>
</svg>
